<svg width="20" height="14" viewBox="0 0 20 14" fill="none" xmlns="http://www.w3.org/2000/svg">
<path fill-rule="evenodd" clip-rule="evenodd" d="M18.4663 3.92608L9.24206 13.07C8.87635 13.4326 8.39651 13.6116 7.91716 13.6098C7.43174 13.6162 6.94483 13.4405 6.57453 13.0735L1.30367 7.84829C0.575861 7.12681 0.575861 5.95726 1.30367 5.23578C2.03131 4.5143 3.21137 4.5143 3.93918 5.23578L7.90665 9.16867L15.8308 1.31357C16.5586 0.592091 17.7385 0.592091 18.4663 1.31357C19.1941 2.03488 19.1941 3.2046 18.4663 3.92608Z" fill="white"/>
<path fill-rule="evenodd" clip-rule="evenodd" d="M18.4663 3.92608L9.24206 13.07C8.87635 13.4326 8.39651 13.6116 7.91716 13.6098C7.43174 13.6162 6.94483 13.4405 6.57453 13.0735L1.30367 7.84829C0.575861 7.12681 0.575861 5.95726 1.30367 5.23578C2.03131 4.5143 3.21137 4.5143 3.93918 5.23578L7.90665 9.16867L15.8308 1.31357C16.5586 0.592091 17.7385 0.592091 18.4663 1.31357C19.1941 2.03488 19.1941 3.2046 18.4663 3.92608Z" fill="url(#paint0_linear)"/>
<defs>
<linearGradient id="paint0_linear" x1="9.88497" y1="0.772461" x2="9.88497" y2="13.6099" gradientUnits="userSpaceOnUse">
<stop stop-color="white"/>
<stop offset="1" stop-color="white" stop-opacity="0"/>
</linearGradient>
</defs>
</svg>
