<svg width="16" height="16" viewBox="0 0 16 16" fill="none" xmlns="http://www.w3.org/2000/svg">
<rect width="16" height="16" fill="white"/>
<path d="M6.58322 9.704H3.78322L3.23122 11H2.15922L4.67922 5.4H5.70322L8.23122 11H7.14322L6.58322 9.704ZM6.23922 8.888L5.18322 6.44L4.13522 8.888H6.23922Z" fill="#BF3434"/>
<path d="M8.94341 5.4H11.3914C11.9887 5.4 12.5194 5.51733 12.9834 5.752C13.4474 5.98133 13.8074 6.30933 14.0634 6.736C14.3194 7.15733 14.4474 7.64533 14.4474 8.2C14.4474 8.75467 14.3194 9.24533 14.0634 9.672C13.8074 10.0933 13.4474 10.4213 12.9834 10.656C12.5194 10.8853 11.9887 11 11.3914 11H8.94341V5.4ZM11.3434 10.12C11.7541 10.12 12.1141 10.0427 12.4234 9.888C12.7381 9.728 12.9781 9.504 13.1434 9.216C13.3141 8.92267 13.3994 8.584 13.3994 8.2C13.3994 7.816 13.3141 7.48 13.1434 7.192C12.9781 6.89867 12.7381 6.67467 12.4234 6.52C12.1141 6.36 11.7541 6.28 11.3434 6.28H9.98341V10.12H11.3434Z" fill="#0D0D0D"/>
</svg>
